# xmcd
#
# Track frame offsets:
#	150
#	13245
#	24727
#	42240
#	51687
#	67258
#	91988
#	116020
#	127711
#	146642
#	164274
#	181488
#	200633
#
# Disc length: 2987 seconds
#
# Revision: 0
# Processed by: cddbd v1.5.2PL0 Copyright (c) Steve Scherf et al.
# Submitted via: EasyCDDAExtractor 16.0.1.1
#
DISCID=c30ba90d
DTITLE=Ruby Dee And The Snakehandlers - Miles From Home
DYEAR=2008
DGENRE=Hillbilly
TTITLE0=Since You Went Away
TTITLE1=Little Things
TTITLE2=Childish Memories
TTITLE3=Settin' The Woods On Fire
TTITLE4=Don't Need A Man
TTITLE5=Comes A Time
TTITLE6=Round And Round
TTITLE7=Gunslinger (Return Of Nobody)
TTITLE8=Drunk Talk
TTITLE9=Cold Pines And Red Dirt
TTITLE10=Standing In The Shadows
TTITLE11=Shameful Breaker
TTITLE12=Cry All Over Me
EXTD=
EXTT0=
EXTT1=
EXTT2=
EXTT3=
EXTT4=
EXTT5=
EXTT6=
EXTT7=
EXTT8=
EXTT9=
EXTT10=
EXTT11=
EXTT12=
PLAYORDER=
